<mxfile host="app.diagrams.net" agent="Mozilla/5.0 (Macintosh; Intel Mac OS X 10_15_7) AppleWebKit/605.1.15 (KHTML, like Gecko) Version/18.4 Safari/605.1.15" version="27.1.4">
  <diagram name="Page-1" id="utDV1Wjn-TLE1LKY4s-M">
    <mxGraphModel dx="1913" dy="686" grid="1" gridSize="10" guides="1" tooltips="1" connect="1" arrows="1" fold="1" page="1" pageScale="1" pageWidth="827" pageHeight="1169" math="0" shadow="0">
      <root>
        <mxCell id="0" />
        <mxCell id="1" parent="0" />
        <mxCell id="VCE-eFX-D-IUiVNwlB2O-1" value="" style="shape=image;verticalLabelPosition=bottom;labelBackgroundColor=default;verticalAlign=top;aspect=fixed;imageAspect=0;image=data:image/png,iVBORw0KGgoAAAANSUhEUgAAAGIAAABkCAYAAAB9/OUTAAAAAXNSR0IArs4c6QAAAIRlWElmTU0AKgAAAAgABQESAAMAAAABAAEAAAEaAAUAAAABAAAASgEbAAUAAAABAAAAUgEoAAMAAAABAAIAAIdpAAQAAAABAAAAWgAAAAAAAACQAAAAAQAAAJAAAAABAAOgAQADAAAAAQABAACgAgAEAAAAAQAAAGKgAwAEAAAAAQAAAGQAAAAAmreI3AAAAAlwSFlzAAAWJQAAFiUBSVIk8AAABplJREFUeAHtXctuGzcUpZpGkBK0qLVwAW1SwN7lD7rpeNFVN/qjKH/kP+j4L7JIgKILL1pUKpq6MmwD6j13yCE9kSVZ5AzvQJeA5z18nMNL3gdHNkaTIqAIKAKKgCKgCCgCioAioAgoAoqAIqAIKAKKgCKgCCgCioAi8CUC57PC4K/nadCr+gPwtXln61xgP17d8+lq/JL3vBmY97QvzcfL0l+UfdQPIiwBBHoBOE+WN0TAHSO7Gg/rY1zA+S2Rsjh5zfcNSPl4Oa9O5G5lExEQAPBdWhLIjyTA3aD9xD53srgxy0lFBpMinBC5RJzP5hiGptd/M8wB+KXt5WWAvz/Ee0j0LkhxhEgnQyYRBOb4v/t3kIJ6mDmkR1syHSHX0xOzevWyF0MVd6asG5Aw/WV9Zn5cTyY/r83Z7NdorYjyQF7IE3lTfvOsbRRfeJOElIAFeSsZu3rC2Ww9HReVJKQkwZVrJQNlkKRBMgp3K/f+q9wVqMsn4DGW2zkBNsC8vpfq4NPlBU3aJbJj7crbJKlKODgfGUSg9xMo0HCsdnN1cIt2vUiTPjQwlEVJjFUugwhCBD2U9f5DtKNd4If3ydomG6REWawaC5EKGURYaViNhiFk7R0T2UFZRXsF7Z9zfiKgzYT+ojbmhiYelVTwVS5bwKSdnwiCY3x754elJmjtnZfIGmVTKrDJmUQQkQWAgbmChjaCNK7NT1nqEBSanwgCAWDYMbsM6tb2YRnME22XtTP//ETsrOJxPKBECOH5mIkoMFFjniC3ensG5J5E5yfCTpqsvQgxrvbELulj+Ymg2DImTdZekjZtR2ZEeudlbqlSfiKscYUYNMekOzSuUCb7trowIreQgFv5iagqSP4fWgTQlXFlPb21b2sHSF3clkFE6BHFPNG2VHTt29qDSRlEWI8opKL1OEEgDZLi1zKIQI8JpMLOFfM9OtLzHoGDEYsSXNzjeW+3+vSLVnN/TuaLD789fP92cDsaFtPrpcEe52bxoXxONk8+SyQg+PTm97/Ywbh6NRS1mkMOEUCQQH84fVsMBuaH0z/+SUeGlYTTPz+bf78dmcXktSgS0HSZ65oQ5F/eFNGLwzDpkxRgqIOUQUvimDXFrtF4SUkmEUDI9uIAQJ5HGLxter/TuCwBbqmmXSlYGoEkoE1yiUDt7LgOTcpJBy6zEYbV3kjwEz2OJxSIurmFylYKKhK3EciZ5dvIJsLhEhCCSyAFqi5SHdzhMyzTv+N7e6+Vte/l3vWDCIdSRQiiadzrcRnWeBjgsavES6jD/BrZKLwXvukXESGYbi7w8WYPeE/AD5ujx4qAIhAi0M+hyQ9LaEsRNKjk4x4OTbKJqACHUcYTtAMc6qlL1nW+acJ2j2DivuITVV8dJjv2AJ4MMfsUa0YAGpE09/Ei7jnV1eW2SYV19/Asx6XpgrU/KpsCDwgiJr9EePAZeGcJO3sAeMEmQGp8wFjyRWw2GHXuHrvV6cSRuYEYJzFZPwfOQ0Qw5MAP5KxggNQAvWRAY2wC2B5IdnjDsOaGsy+sdV9O9Q6/2M2mWyKe6P1oau0Lqsbz9npn0Amo2MJJzEZSOhy6uiHCErCp9z+yhHNoO15i6s+B3fDFcwqkpANC2ifC+onwUQjGff7Etvq5BozNaGQJiRCRbF2dlGBewUTfBSHtEVFJAeIKtee09ppKI6DZCwJC3JDVNhnpiWgMQ2hjMP7LkoAmAc3zDglJS8RTw9DAXIgagpqA7zqndiX5JYQt5aSLWdvKIjiPuDDmgofhi/ccEaOFAVvqIP8WYum0kOHzNyNauHzPH0EmX9yQBAWQkPpnG5JUrIVMqK1t/JxEmqEJvxhAWpHVMMTGhZPRYhc3QKu6nn5nSOqjcYxfYIYe4n8xAJW6SNZgqRmR1mc1QFLJyQFZGYlRtY0nIgzcQy09hgTbh9oKbZB9Y95ReXDr44kgNwEH86uP1cuDa9K/F7mt1itcxFY/BRFcB3ZVSLKSY5HZ9T619ZE3OHJ4iiOCCscYCd/MsSa0neeJSADiiIgsXF/3CCgRHousR0pEVvh94UqExyLrkRKRFX5fuBLhsch6pERkhd8XrkR4LLIeKRFZ4feFKxEei6xHSkRW+H3hSoTHIuuREpEVfl+4EuGxyHr0dWzplU/e/j+f2Mx6+L5dsxVd8zgiEAg6n13Qr7xEV6SXGdB6rbrtxxQU6yVZWmlFQBFQBBQBRUARUAQUAUVAEVAEFAFFQBFQBBQBRUAROE4E/gf3V/o+DcZCgAAAAABJRU5ErkJggg==;" parent="1" vertex="1">
          <mxGeometry x="365" y="290" width="58.8" height="60" as="geometry" />
        </mxCell>
        <mxCell id="TFc7yE8lHGfBqS_jKeA_-12" style="edgeStyle=orthogonalEdgeStyle;rounded=0;orthogonalLoop=1;jettySize=auto;html=1;exitX=1;exitY=0.5;exitDx=0;exitDy=0;" parent="1" edge="1">
          <mxGeometry relative="1" as="geometry">
            <mxPoint x="720" y="355" as="targetPoint" />
            <mxPoint x="690.1399999999999" y="355" as="sourcePoint" />
          </mxGeometry>
        </mxCell>
        <mxCell id="TFc7yE8lHGfBqS_jKeA_-13" style="edgeStyle=orthogonalEdgeStyle;rounded=0;orthogonalLoop=1;jettySize=auto;html=1;exitX=1;exitY=0.5;exitDx=0;exitDy=0;" parent="1" edge="1">
          <mxGeometry relative="1" as="geometry">
            <mxPoint x="720" y="360" as="targetPoint" />
            <mxPoint x="690.1399999999999" y="490" as="sourcePoint" />
          </mxGeometry>
        </mxCell>
        <mxCell id="VCE-eFX-D-IUiVNwlB2O-19" value="Azure Cognitive search" style="text;html=1;align=center;verticalAlign=middle;resizable=0;points=[];autosize=1;strokeColor=none;fillColor=none;" parent="1" vertex="1">
          <mxGeometry x="545" y="280" width="150" height="30" as="geometry" />
        </mxCell>
        <mxCell id="VCE-eFX-D-IUiVNwlB2O-23" value="" style="edgeStyle=none;orthogonalLoop=1;jettySize=auto;html=1;rounded=0;" parent="1" edge="1">
          <mxGeometry width="100" relative="1" as="geometry">
            <mxPoint x="479.8600000000001" y="360" as="sourcePoint" />
            <mxPoint x="565" y="360" as="targetPoint" />
            <Array as="points" />
          </mxGeometry>
        </mxCell>
        <mxCell id="VCE-eFX-D-IUiVNwlB2O-24" value="" style="edgeStyle=none;orthogonalLoop=1;jettySize=auto;html=1;rounded=0;exitX=1;exitY=0.75;exitDx=0;exitDy=0;entryX=0;entryY=0.25;entryDx=0;entryDy=0;" parent="1" edge="1">
          <mxGeometry width="100" relative="1" as="geometry">
            <mxPoint x="479.8600000000001" y="390" as="sourcePoint" />
            <mxPoint x="569" y="470" as="targetPoint" />
            <Array as="points" />
          </mxGeometry>
        </mxCell>
        <mxCell id="VCE-eFX-D-IUiVNwlB2O-27" value="RAG? if not BING" style="text;html=1;align=center;verticalAlign=middle;resizable=0;points=[];autosize=1;strokeColor=none;fillColor=none;" parent="1" vertex="1">
          <mxGeometry x="339.33" y="400" width="120" height="30" as="geometry" />
        </mxCell>
        <mxCell id="TFc7yE8lHGfBqS_jKeA_-2" value="Azure OpenAI Agent" style="rounded=0;whiteSpace=wrap;html=1;" parent="1" vertex="1">
          <mxGeometry x="339.33" y="290" width="110.14" height="50" as="geometry" />
        </mxCell>
        <mxCell id="TFc7yE8lHGfBqS_jKeA_-8" value="" style="edgeStyle=none;orthogonalLoop=1;jettySize=auto;html=1;rounded=0;" parent="1" edge="1">
          <mxGeometry width="100" relative="1" as="geometry">
            <mxPoint x="229" y="370" as="sourcePoint" />
            <mxPoint x="329" y="370" as="targetPoint" />
            <Array as="points" />
          </mxGeometry>
        </mxCell>
        <mxCell id="TFc7yE8lHGfBqS_jKeA_-9" value="Transcription" style="text;html=1;align=center;verticalAlign=middle;resizable=0;points=[];autosize=1;strokeColor=none;fillColor=none;" parent="1" vertex="1">
          <mxGeometry x="230" y="340" width="90" height="30" as="geometry" />
        </mxCell>
        <mxCell id="TFc7yE8lHGfBqS_jKeA_-10" value="" style="edgeStyle=none;orthogonalLoop=1;jettySize=auto;html=1;rounded=0;" parent="1" edge="1">
          <mxGeometry width="100" relative="1" as="geometry">
            <mxPoint x="725" y="354" as="sourcePoint" />
            <mxPoint x="795" y="354" as="targetPoint" />
            <Array as="points" />
          </mxGeometry>
        </mxCell>
        <mxCell id="TFc7yE8lHGfBqS_jKeA_-17" value="Azure resource:&amp;nbsp;&lt;div&gt;Speech Services&lt;/div&gt;&lt;div&gt;STT models&lt;/div&gt;" style="text;html=1;align=center;verticalAlign=middle;resizable=0;points=[];autosize=1;strokeColor=none;fillColor=none;" parent="1" vertex="1">
          <mxGeometry x="100" y="272" width="110" height="60" as="geometry" />
        </mxCell>
        <mxCell id="TFc7yE8lHGfBqS_jKeA_-18" value="" style="image;aspect=fixed;html=1;points=[];align=center;fontSize=12;image=img/lib/azure2/ai_machine_learning/Speech_Services.svg;" parent="1" vertex="1">
          <mxGeometry x="131.14" y="332" width="68" height="68" as="geometry" />
        </mxCell>
        <mxCell id="TFc7yE8lHGfBqS_jKeA_-19" value="" style="image;aspect=fixed;html=1;points=[];align=center;fontSize=12;image=img/lib/azure2/ai_machine_learning/Speech_Services.svg;" parent="1" vertex="1">
          <mxGeometry x="790" y="318.08" width="68" height="68" as="geometry" />
        </mxCell>
        <mxCell id="TFc7yE8lHGfBqS_jKeA_-20" value="" style="edgeStyle=none;orthogonalLoop=1;jettySize=auto;html=1;rounded=0;" parent="1" edge="1">
          <mxGeometry width="100" relative="1" as="geometry">
            <mxPoint x="870" y="354.5" as="sourcePoint" />
            <mxPoint x="910" y="354.5" as="targetPoint" />
            <Array as="points" />
          </mxGeometry>
        </mxCell>
        <mxCell id="TFc7yE8lHGfBqS_jKeA_-21" value="Azure resource:&amp;nbsp;&lt;div&gt;Speech Services&lt;/div&gt;&lt;div&gt;TTS models&lt;/div&gt;" style="text;html=1;align=center;verticalAlign=middle;resizable=0;points=[];autosize=1;strokeColor=none;fillColor=none;" parent="1" vertex="1">
          <mxGeometry x="770" y="250.00000000000003" width="110" height="60" as="geometry" />
        </mxCell>
        <mxCell id="TFc7yE8lHGfBqS_jKeA_-24" value="" style="image;aspect=fixed;html=1;points=[];align=center;fontSize=12;image=img/lib/azure2/ai_machine_learning/Azure_OpenAI.svg;" parent="1" vertex="1">
          <mxGeometry x="369.40000000000003" y="347.09000000000003" width="50" height="50" as="geometry" />
        </mxCell>
        <mxCell id="TFc7yE8lHGfBqS_jKeA_-25" value="Search real time" style="text;html=1;align=center;verticalAlign=middle;resizable=0;points=[];autosize=1;strokeColor=none;fillColor=none;" parent="1" vertex="1">
          <mxGeometry x="480" y="398" width="110" height="30" as="geometry" />
        </mxCell>
        <mxCell id="TFc7yE8lHGfBqS_jKeA_-26" value="RAG" style="text;html=1;align=center;verticalAlign=middle;resizable=0;points=[];autosize=1;strokeColor=none;fillColor=none;" parent="1" vertex="1">
          <mxGeometry x="495" y="330" width="50" height="30" as="geometry" />
        </mxCell>
        <mxCell id="TFc7yE8lHGfBqS_jKeA_-32" value="" style="rounded=0;whiteSpace=wrap;html=1;fillColor=none;dashed=1;dashPattern=12 12;" parent="1" vertex="1">
          <mxGeometry x="274.67" y="172.05" width="490.67" height="396.75" as="geometry" />
        </mxCell>
        <mxCell id="TFc7yE8lHGfBqS_jKeA_-33" value="Azure BING agent tool" style="text;html=1;align=center;verticalAlign=middle;resizable=0;points=[];autosize=1;strokeColor=none;fillColor=none;" parent="1" vertex="1">
          <mxGeometry x="543.57" y="515" width="140" height="30" as="geometry" />
        </mxCell>
        <mxCell id="TFc7yE8lHGfBqS_jKeA_-36" value="" style="image;aspect=fixed;html=1;points=[];align=center;fontSize=12;image=img/lib/azure2/ai_machine_learning/AI_Studio.svg;" parent="1" vertex="1">
          <mxGeometry x="488.01" y="100" width="64" height="68" as="geometry" />
        </mxCell>
        <mxCell id="TFc7yE8lHGfBqS_jKeA_-37" value="Azure AI Foundry" style="text;html=1;align=center;verticalAlign=middle;resizable=0;points=[];autosize=1;strokeColor=none;fillColor=none;" parent="1" vertex="1">
          <mxGeometry x="470" y="180" width="120" height="30" as="geometry" />
        </mxCell>
        <mxCell id="TFc7yE8lHGfBqS_jKeA_-38" value="" style="shape=actor;whiteSpace=wrap;html=1;" parent="1" vertex="1">
          <mxGeometry x="-182.86" y="347.09000000000003" width="20" height="30" as="geometry" />
        </mxCell>
        <mxCell id="TFc7yE8lHGfBqS_jKeA_-39" style="edgeStyle=none;rounded=0;orthogonalLoop=1;jettySize=auto;html=1;exitX=0;exitY=0.5;exitDx=0;exitDy=0;startArrow=classic;startFill=0;endArrow=none;" parent="1" edge="1">
          <mxGeometry relative="1" as="geometry">
            <mxPoint x="-112.86" y="363.23" as="targetPoint" />
            <mxPoint x="-88.86" y="363.2299999999999" as="sourcePoint" />
          </mxGeometry>
        </mxCell>
        <mxCell id="TFc7yE8lHGfBqS_jKeA_-40" value="" style="points=[];aspect=fixed;html=1;align=center;shadow=0;dashed=0;fillColor=#FF6A00;strokeColor=none;shape=mxgraph.alibaba_cloud.vms_voice_messaging_service;" parent="1" vertex="1">
          <mxGeometry x="-152.86" y="348.23" width="30" height="28.86" as="geometry" />
        </mxCell>
        <mxCell id="TFc7yE8lHGfBqS_jKeA_-41" value="" style="shape=image;verticalLabelPosition=bottom;labelBackgroundColor=default;verticalAlign=top;aspect=fixed;imageAspect=0;editableCssRules=.*;image=data:image/svg+xml,PHN2ZyB4bWxucz0iaHR0cDovL3d3dy53My5vcmcvMjAwMC9zdmciIHdpZHRoPSIyNTUuOTU5MzgxMTAzNTE1NjIiIHZpZXdCb3g9IjAuMDIwMzE3MDc3NjM2NzE4NzUgMC4zOTIxMjAzNjEzMjgxMjUgMjU1Ljk1OTM4MTEwMzUxNTYyIDI0OC4yODY4OTU3NTE5NTMxMiIgcHJlc2VydmVBc3BlY3RSYXRpbz0ieE1pZFlNaWQiIGhlaWdodD0iMjQ4LjI4Njg5NTc1MTk1MzEyIj48cGF0aCB0cmFuc2Zvcm09Im1hdHJpeCgxIDAgMCAtMSAwIDM4Mi4xNzM2MzQpIiBmaWxsPSIjZjYwIiBkPSJtMTQyLjA3NjU3OCAxOTEuMDg2ODE3YzAtMzEuODA2MTYxLTI1Ljc4MTgxOS01Ny41OTIyMDItNTcuNTg3OTgxMS01Ny41OTIyMDItMzEuODEwMzgzMyAwLTU3LjU5MjIwMjkgMjUuNzg2MDQxLTU3LjU5MjIwMjkgNTcuNTkyMjAyIDAgMzEuODA2MTYyIDI1Ljc4MTgxOTYgNTcuNTkyMjAzIDU3LjU5MjIwMjkgNTcuNTkyMjAzIDMxLjgwNjE2MjEgMCA1Ny41ODc5ODExLTI1Ljc4NjA0MSA1Ny41ODc5ODExLTU3LjU5MjIwMyIvPjxwYXRoIHRyYW5zZm9ybT0ibWF0cml4KDEgMCAwIC0xIDAgMjIwLjkxMjkzNCkiIGZpbGw9IiNmYzAiIGQ9Im0yNTUuOTc5NzAzIDExMC40NTQzNTZjMC0zMS44MDE5NC0yNS43ODE4MTktNTcuNTkyMjAzLTU3LjU4Nzk4MS01Ny41OTIyMDMtMzEuODEwMzgzIDAtNTcuNTkyMjAzIDI1Ljc5MDI2My01Ny41OTIyMDMgNTcuNTkyMjAzIDAgMzEuODA2MTYyIDI1Ljc4MTgyIDU3LjU5NjQyNSA1Ny41OTIyMDMgNTcuNTk2NDI1IDMxLjgwNjE2MiAwIDU3LjU4Nzk4MS0yNS43OTAyNjMgNTcuNTg3OTgxLTU3LjU5NjQyNSIvPjxwYXRoIHRyYW5zZm9ybT0ibWF0cml4KDEgMCAwIC0xIDAgMjE4LjM1NzEyNikiIGZpbGw9IiMwMDg5Y2MiIGQ9Im0xMTUuMjAwNDk4IDEwOS4xNzY0NTJjMC0zMS44MDE5Mzk1LTI1Ljc4MTgxOTQtNTcuNTkyMjAyNS01Ny41OTIyMDI3LTU3LjU5MjIwMjUtMzEuODAxOTQgMC01Ny41ODc5ODEyNyAyNS43OTAyNjMtNTcuNTg3OTgxMjcgNTcuNTkyMjAyNSAwIDMxLjgwNjE2MiAyNS43ODYwNDEyNyA1Ny41OTY0MjUgNTcuNTg3OTgxMjcgNTcuNTk2NDI1IDMxLjgxMDM4MzMgMCA1Ny41OTIyMDI3LTI1Ljc5MDI2MyA1Ny41OTIyMDI3LTU3LjU5NjQyNSIvPjxwYXRoIHRyYW5zZm9ybT0ibWF0cml4KDEgMCAwIC0xIDAgMzgyLjE3MzYzNCkiIGZpbGw9IiMwMDk5MzkiIGQ9Im0yMzAuMzg1NzQ5IDE5MS4wODY4MTdjMC0zMS44MDYxNjEtMjUuNzgxODItNTcuNTkyMjAyLTU3LjU5NjQyNS01Ny41OTIyMDItMzEuODAxOTQgMC01Ny41ODc5ODEgMjUuNzg2MDQxLTU3LjU4Nzk4MSA1Ny41OTIyMDIgMCAzMS44MDYxNjIgMjUuNzg2MDQxIDU3LjU5MjIwMyA1Ny41ODc5ODEgNTcuNTkyMjAzIDMxLjgxNDYwNSAwIDU3LjU5NjQyNS0yNS43ODYwNDEgNTcuNTk2NDI1LTU3LjU5MjIwMyIvPjxwYXRoIHRyYW5zZm9ybT0ibWF0cml4KDEgMCAwIC0xIDAgMTE1Ljk2ODY0MikiIGZpbGw9IiNiZjAwMDAiIGQ9Im0xODUuNTkyMDAxIDU3Ljk4NDMyMTNjMC0zMS44MDYxNjE2LTI1Ljc4NjA0Mi01Ny41OTIyMDI5NS01Ny41OTIyMDMtNTcuNTkyMjAyOTUtMzEuODA2MTYyMSAwLTU3LjU5MjIwMzQgMjUuNzg2MDQxMzUtNTcuNTkyMjAzNCA1Ny41OTIyMDI5NSAwIDMxLjgwNjE2MTcgMjUuNzg2MDQxMyA1Ny41OTIyMDI3IDU3LjU5MjIwMzQgNTcuNTkyMjAyNyAzMS44MDYxNjEgMCA1Ny41OTIyMDMtMjUuNzg2MDQxIDU3LjU5MjIwMy01Ny41OTIyMDI3Ii8+PHBhdGggdHJhbnNmb3JtPSJtYXRyaXgoMSAwIDAgLTEgMCAxNjguNDM3NDEpIiBmaWxsPSIjZmMwMDA3IiBkPSJtMTQwLjc5ODY3NSA1Ny45Nzg4MzMxYzAtMS4yMTE2MjMxLjEwNTU0Mi0yLjM5NzkxNjEuMTgxNTMyLTMuNTkyNjUyNCAyNS41NDU0MDUgNS44OTM0Njk4IDQ0LjYxMDUyNyAyOC43MzI3NzYyIDQ0LjYxMDUyNyA1Ni4wNjgxNzUzIDAgMS4yMTE2MjMtLjEwNTU0MiAyLjQwMjEzOC0uMTgxNTMyIDMuNTk2ODc0LTI1LjU0NTQwNi01Ljg5NzY5MS00NC42MTA1MjctMjguNzM2OTk3OC00NC42MTA1MjctNTYuMDcyMzk2OSIvPjxwYXRoIHRyYW5zZm9ybT0ibWF0cml4KDEgMCAwIC0xIDAgMzAxLjU0NjI0KSIgZmlsbD0iIzFjZDMwNiIgZD0ibTE0OC4zOTY4NiAxNjIuNTcwNjE0YzkuOTI1MTc4LTE3LjM1MTExOSAyOC41NzY1NzQtMjkuMDc0NzMzIDQ5Ljk5NzM5NS0yOS4wNzQ3MzMgOC43MzA0NDEgMCAxNi45NzUzODggMi4wMDEwNzggMjQuMzkyODg2IDUuNDc5NzQ1LTkuOTIwOTU2IDE3LjM1MTExOC0yOC41NzIzNTIgMjkuMDc0NzMyLTQ5Ljk5NzM5NSAyOS4wNzQ3MzItOC43MzA0NDEgMC0xNi45NzUzODgtMi4wMDEwNzctMjQuMzkyODg2LTUuNDc5NzQ0Ii8+PHBhdGggdHJhbnNmb3JtPSJtYXRyaXgoMSAwIDAgLTEgMCAzODIuMTczNjM0KSIgZmlsbD0iIzBmNzUwNCIgZD0ibTExNS4yMDA0OTggMTkxLjA4NjgxN2MwLTE0LjA3MDg3IDUuMDU3NTc3LTI2Ljk0NzAwNCAxMy40NDE4NC0zNi45NDgxNzEgOC4zNzU4MTkgMTAuMDAxMTY3IDEzLjQzMzM5NiAyMi44NzczMDEgMTMuNDMzMzk2IDM2Ljk0ODE3MSAwIDE0LjA3MDg3MS01LjA1NzU3NyAyNi45NDcwMDUtMTMuNDMzMzk2IDM2Ljk0ODE3Mi04LjM4NDI2My0xMC4wMDExNjctMTMuNDQxODQtMjIuODc3MzAxLTEzLjQ0MTg0LTM2Ljk0ODE3MiIvPjxwYXRoIHRyYW5zZm9ybT0ibWF0cml4KDEgMCAwIC0xIDAgMzAwLjI2OTYwMikiIGZpbGw9IiMwYzVlODciIGQ9Im0zNC44MDY5ODQgMTM4LjIxMjc2OGM2Ljk5NTMyOTItMy4wMjI3MjUgMTQuNjk1Njc5NS00LjcxNTYyIDIyLjgwMTMxMTMtNC43MTU2MiAyMS4yMDk3MzY3IDAgMzkuNjg4MDQ0MyAxMS40OTU2NDMgNDkuNjg0OTkwNyAyOC41NjM5MDgtNi45OTUzMyAzLjAyMjcyNi0xNC42OTk5MDE2IDQuNzExMzk5LTIyLjgwMTMxMTcgNC43MTEzOTktMjEuMjA5NzM2NyAwLTM5LjY5MjI2Ni0xMS40OTU2NDQtNDkuNjg0OTkwMy0yOC41NTk2ODciLz48cGF0aCB0cmFuc2Zvcm09Im1hdHJpeCgxIDAgMCAtMSAwIDE2Ny4xNjE2MTgpIiBmaWxsPSIjNmIwMDAxIiBkPSJtNzAuNjU0NTYzMSAxMTQuMDM2MDMyYy0uMTM1MDkzOS0xLjYwNDI0LS4yNDkwNzkzLTMuMjE2OTIzLS4yNDkwNzkzLTQuODU5MTU3IDAtMjcuMzE0MjkxIDE5LjAzNTU2OTgtNTAuMTMyNDg5IDQ0LjU1MTQyMzItNTYuMDUxMjg4OS4xMzA4NzIgMS42MDQyMzk2LjI0NDg1OCAzLjIxNjkyMjYuMjQ0ODU4IDQuODU0OTM1NyAwIDI3LjMxNDI5MDctMTkuMDMxMzQ4MyA1MC4xNDA5MzIyLTQ0LjU0NzIwMTkgNTYuMDU1NTEwMiIvPjxwYXRoIHRyYW5zZm9ybT0ibWF0cml4KDEgMCAwIC0xIDAgMjk1LjQ2NDQ4MikiIGZpbGw9IiNmZmYiIGQ9Im03Ni4wMzA0NTQ1IDExMS41MDM4NjZoLTkuMDA5MDcyYy03Ljk1MzY1MTMgMC0xNC40MjEyNyA2LjQ0NjUxMS0xNC40MjEyNyAxNC4zNzkwNTR2ODEuNTQ2MDMzYzAgNy45MzI1NDMgNi40Njc2MTg3IDE0LjM4MzI3NSAxNC40MjEyNyAxNC4zODMyNzVoMTEyLjk2ODAyMjVjNy45NTM2NTEgMCAxNC40MTcwNDgtNi40NTA3MzIgMTQuNDE3MDQ4LTE0LjM4MzI3NXYtODEuNTQ2MDMzYzAtNy45MzI1NDMtNi40NjMzOTctMTQuMzc5MDU0LTE0LjQxNzA0OC0xNC4zNzkwNTRoLTM4LjQ4NDg2NWwtNzcuMjE0NTg2Ni0zNy44NTE2MTE2eiIvPjwvc3ZnPg==;" parent="1" vertex="1">
          <mxGeometry x="-62.86" y="351.0799999999999" width="39.95" height="38.7" as="geometry" />
        </mxCell>
        <mxCell id="TFc7yE8lHGfBqS_jKeA_-42" value="WebRTC" style="text;html=1;align=center;verticalAlign=middle;resizable=0;points=[];autosize=1;strokeColor=none;fillColor=none;" parent="1" vertex="1">
          <mxGeometry x="-77.88000000000001" y="400" width="70" height="30" as="geometry" />
        </mxCell>
        <mxCell id="TFc7yE8lHGfBqS_jKeA_-43" value="Audio recording" style="text;whiteSpace=wrap;" parent="1" vertex="1">
          <mxGeometry x="-90" y="324.99999999999994" width="140" height="40" as="geometry" />
        </mxCell>
        <mxCell id="TFc7yE8lHGfBqS_jKeA_-44" value="Raw Audio File&lt;div&gt;(.wav)&lt;/div&gt;" style="text;html=1;align=center;verticalAlign=middle;resizable=0;points=[];autosize=1;strokeColor=none;fillColor=none;" parent="1" vertex="1">
          <mxGeometry x="31.14" y="346.0799999999999" width="100" height="40" as="geometry" />
        </mxCell>
        <mxCell id="i2Sw8suIwHdIi-IFqOg8-2" value="Frontend" style="text;html=1;align=center;verticalAlign=middle;resizable=0;points=[];autosize=1;strokeColor=none;fillColor=none;" vertex="1" parent="1">
          <mxGeometry x="-175" y="258" width="70" height="30" as="geometry" />
        </mxCell>
        <mxCell id="i2Sw8suIwHdIi-IFqOg8-3" style="edgeStyle=none;rounded=0;orthogonalLoop=1;jettySize=auto;html=1;startArrow=classic;startFill=0;endArrow=none;" edge="1" parent="1">
          <mxGeometry relative="1" as="geometry">
            <mxPoint x="-82.86" y="377.09000000000015" as="targetPoint" />
            <mxPoint x="-122.86" y="377.09000000000003" as="sourcePoint" />
          </mxGeometry>
        </mxCell>
        <mxCell id="i2Sw8suIwHdIi-IFqOg8-4" value="" style="image;aspect=fixed;html=1;points=[];align=center;fontSize=12;image=img/lib/azure2/app_services/Search_Services.svg;" vertex="1" parent="1">
          <mxGeometry x="579.57" y="327.52" width="68" height="49.120000000000005" as="geometry" />
        </mxCell>
        <mxCell id="i2Sw8suIwHdIi-IFqOg8-5" value="" style="dashed=0;outlineConnect=0;html=1;align=center;labelPosition=center;verticalLabelPosition=bottom;verticalAlign=top;shape=mxgraph.weblogos.bing;fillColor=#008373;strokeColor=none" vertex="1" parent="1">
          <mxGeometry x="595" y="440" width="53" height="66.2" as="geometry" />
        </mxCell>
      </root>
    </mxGraphModel>
  </diagram>
</mxfile>
